Love for All and Sharing is the first step to solving all the problems of humanity.

Website I want to share. 
               
   http://www.scenetime.com
 
 
  Credit to EVERYONE for sharing and seeding back
 especially to SCENETIME.COM where i get all my 
 downloads.


 support www.scenetime.com to grow faster.

                             
                                                            
                                                   

.                 ..................................NFO:....................................[img]http://leetleech.org/images/18588870136005350946.png[/img]

[b]After Life 2010 720p BRRip XviD AC3-LEGi0N

[img]http://leetleech.org/images/48874973695367351744.png[/img]
[color=red]General[/color]
Format: AVI
File size: 2.49 GiB
Duration: 1h 42mn
Overall bit rate: 3 460 Kbps
IMDb Rating: 6.3/10   2,039 votes
Genre: Drama | Mystery | Thriller 
Release Date: 26 August 2010
IMDb Link: http://www.imdb.com/title/tt0838247/
Source: 720p BluRay x264-DEPRAViTY

[color=red]Video[/color]
Format: MPEG-4 Visual
Format profile: Streaming Video@L1
Format settings, BVOP: Yes
Format settings, QPel: No
Format settings, GMC: No warppoints
Format settings, Matrix: Default (H.263)
Muxing mode: Packed bitstream
Codec ID: XVID
Bit rate: 3 000 Kbps
Width: 1 280 pixels
Height: 528 pixels
Display aspect ratio: 2.424
Frame rate: 23.976 fps
Resolution: 24 bits
Colorimetry: 4:2:0
Scan type: Progressive
Bits/(Pixel*Frame): 0.185
Stream size: 2.16 GiB (87%)

[color=red]Audio[/color]
Format: AC-3
Bit rate mode: Constant
Bit rate: 448 Kbps
Channel(s): 6 channels
Sampling rate: 48.0 KHz
Stream size: 330 MiB (13%)

[img]http://leetleech.org/images/89524873606771859129.png[/img]
A young woman caught between life and death... and a funeral 
director who appears to have the gift of transitioning the 
dead, but might just be intent on burying her alive.

[color=red]Tagline:[/color]
Life is the symptom. Death is the cure.

[img]http://leetleech.org/images/84434050717770922575.png[/img]
Christina Ricci	 ... 	Anna Taylor
Liam Neeson	... 	Eliot Deacon
Justin Long	... 	Paul Coleman
Chandler Canterbury	... 	Jack
Celia Weston	... 	Beatrice Taylor
Luz Alexandra Ramos	... 	Diane
Josh Charles	... 	Tom Peterson
Rosemary Murphy	... 	Mrs. Whitehall
Malachy McCourt	... 	Father Graham
Shuler Hensley	... 	Vincent Miller
Alice Drummond	... 	Mrs. Hutton
Sam Kressner	... 	Acne Kid
Doan Ly	... 	Teacher #1
Jack Rovello	... 	Tall Kid
Prudence Wright Holmes	... 	Old Woman #1

[color=red]GREETZ[/color]
Noir | xXTHORNXx | bigimac | LUSi |

kempas | KaN1vE | mike160 | skillz |

Lungbuster | Sheikh | dillon1369 |

FLAWL3SS | AND ALL P2P!

[color=red]SAMPLE INCLUDED![/color][/b]

[img]http://leetleech.org/images/95521316153253938506.png[/img]
[img]http://leetleech.org/images/06550654057459714038.png[/img]
[img]http://leetleech.org/images/83914914745411948042.png[/img]
[img]http://leetleech.org/images/45925278847955119085.png[/img]
[img]http://leetleech.org/images/44556847528562434178.png[/img]
[img]http://leetleech.org/images/01242710423377746231.png[/img]
[img]http://leetleech.org/images/12755021538703799215.png[/img]